# Blender 3.6.15
# www.blender.org
mtllib garbage_can.mtl
o Cylinder.001
v -0.000000 0.004523 -0.225718
v 0.000000 0.461095 -0.273127
v 0.112859 0.004523 -0.195478
v 0.136563 0.461095 -0.236535
v 0.195478 0.004523 -0.112859
v 0.236535 0.461095 -0.136563
v 0.225718 0.004523 0.000000
v 0.273127 0.461095 0.000000
v 0.195478 0.004523 0.112859
v 0.236535 0.461095 0.136563
v 0.112859 0.004523 0.195478
v 0.136563 0.461095 0.236535
v -0.000000 0.004523 0.225718
v -0.000000 0.461095 0.273127
v -0.112859 0.004523 0.195478
v -0.136563 0.461095 0.236535
v -0.195478 0.004523 0.112859
v -0.236535 0.461095 0.136563
v -0.225718 0.004523 -0.000000
v -0.273127 0.461095 0.000000
v -0.195478 0.004523 -0.112859
v -0.236535 0.461095 -0.136563
v -0.112859 0.004523 -0.195478
v -0.136563 0.461095 -0.236535
v 0.000000 0.001559 -0.231250
v 0.000000 0.464059 -0.279821
v 0.115625 0.001559 -0.200268
v 0.139910 0.464059 -0.242332
v 0.200268 0.001559 -0.115625
v 0.242332 0.464059 -0.139910
v 0.231250 0.001559 0.000000
v 0.279821 0.464059 0.000000
v 0.200268 0.001559 0.115625
v 0.242332 0.464059 0.139910
v 0.115625 0.001559 0.200268
v 0.139910 0.464059 0.242332
v -0.000000 0.001559 0.231250
v -0.000000 0.464059 0.279821
v -0.115625 0.001559 0.200268
v -0.139910 0.464059 0.242332
v -0.200268 0.001559 0.115625
v -0.242332 0.464059 0.139910
v -0.231250 0.001559 -0.000000
v -0.279821 0.464059 0.000000
v -0.200268 0.001559 -0.115625
v -0.242332 0.464059 -0.139910
v -0.115625 0.001559 -0.200268
v -0.139910 0.464059 -0.242332
v 0.000000 0.472064 0.282166
v 0.000000 0.475285 0.274390
v -0.000000 0.472064 0.266614
v -0.000000 0.464288 0.263393
v -0.000000 0.456512 0.266614
v 0.000000 0.453291 0.274390
v 0.000000 0.456512 0.282166
v 0.000000 0.464288 0.285387
v -0.142637 0.472064 0.243574
v -0.138740 0.475285 0.236845
v -0.134844 0.472064 0.230115
v -0.133230 0.464288 0.227328
v -0.134844 0.456512 0.230115
v -0.138740 0.453291 0.236845
v -0.142637 0.456512 0.243574
v -0.144250 0.464288 0.246362
v -0.244109 0.472064 0.142102
v -0.237380 0.475285 0.138206
v -0.230650 0.472064 0.134309
v -0.227863 0.464288 0.132695
v -0.230650 0.456512 0.134309
v -0.237380 0.453291 0.138206
v -0.244109 0.456512 0.142102
v -0.246896 0.464288 0.143716
v -0.282701 0.472064 -0.000535
v -0.274925 0.475285 -0.000535
v -0.267148 0.472064 -0.000535
v -0.263928 0.464288 -0.000535
v -0.267148 0.456512 -0.000535
v -0.274925 0.453291 -0.000535
v -0.282701 0.456512 -0.000535
v -0.285922 0.464288 -0.000535
v -0.244109 0.472064 -0.143171
v -0.237380 0.475285 -0.139275
v -0.230650 0.472064 -0.135378
v -0.227863 0.464288 -0.133765
v -0.230650 0.456512 -0.135378
v -0.237380 0.453291 -0.139275
v -0.244109 0.456512 -0.143171
v -0.246896 0.464288 -0.144785
v -0.142637 0.472064 -0.244644
v -0.138740 0.475285 -0.237914
v -0.134844 0.472064 -0.231185
v -0.133230 0.464288 -0.228397
v -0.134844 0.456512 -0.231185
v -0.138740 0.453291 -0.237914
v -0.142637 0.456512 -0.244644
v -0.144251 0.464288 -0.247431
v -0.000000 0.472064 -0.283235
v -0.000000 0.475285 -0.275459
v 0.000000 0.472064 -0.267683
v 0.000000 0.464288 -0.264462
v 0.000000 0.456512 -0.267683
v 0.000000 0.453291 -0.275459
v -0.000000 0.456512 -0.283235
v -0.000000 0.464288 -0.286456
v 0.142637 0.472064 -0.244644
v 0.138740 0.475285 -0.237914
v 0.134844 0.472064 -0.231185
v 0.133230 0.464288 -0.228397
v 0.134844 0.456512 -0.231185
v 0.138740 0.453291 -0.237914
v 0.142637 0.456512 -0.244644
v 0.144250 0.464288 -0.247431
v 0.244109 0.472064 -0.143171
v 0.237380 0.475285 -0.139275
v 0.230650 0.472064 -0.135379
v 0.227863 0.464288 -0.133765
v 0.230650 0.456512 -0.135379
v 0.237380 0.453291 -0.139275
v 0.244109 0.456512 -0.143171
v 0.246896 0.464288 -0.144785
v 0.282701 0.472064 -0.000535
v 0.274925 0.475285 -0.000535
v 0.267148 0.472064 -0.000535
v 0.263928 0.464288 -0.000535
v 0.267148 0.456512 -0.000535
v 0.274925 0.453291 -0.000535
v 0.282701 0.456512 -0.000535
v 0.285922 0.464288 -0.000535
v 0.244109 0.472064 0.142102
v 0.237380 0.475285 0.138205
v 0.230650 0.472064 0.134309
v 0.227863 0.464288 0.132695
v 0.230650 0.456512 0.134309
v 0.237380 0.453291 0.138205
v 0.244109 0.456512 0.142102
v 0.246896 0.464288 0.143716
v 0.142637 0.472064 0.243574
v 0.138740 0.475285 0.236845
v 0.134844 0.472064 0.230115
v 0.133230 0.464288 0.227328
v 0.134844 0.456512 0.230115
v 0.138740 0.453291 0.236845
v 0.142637 0.456512 0.243574
v 0.144251 0.464288 0.246362
vn -0.0000 0.1033 0.9947
vn -0.4973 0.1033 0.8614
vn -0.8614 0.1033 0.4973
vn -0.9947 0.1033 -0.0000
vn -0.8614 0.1033 -0.4973
vn -0.4973 0.1033 -0.8614
vn -0.0000 0.1033 -0.9947
vn 0.4973 0.1033 -0.8614
vn 0.8614 0.1033 -0.4973
vn 0.9947 0.1033 -0.0000
vn 0.8614 0.1033 0.4973
vn 0.4973 0.1033 0.8614
vn -0.0000 -0.1044 -0.9945
vn 0.4973 -0.1044 -0.8613
vn 0.8613 -0.1044 -0.4973
vn 0.9945 -0.1044 -0.0000
vn 0.8613 -0.1044 0.4973
vn 0.4973 -0.1044 0.8613
vn -0.0000 -0.1044 0.9945
vn -0.4973 -0.1044 0.8613
vn -0.8613 -0.1044 0.4973
vn -0.9945 -0.1044 -0.0000
vn -0.8613 -0.1044 -0.4973
vn -0.4973 -0.1044 -0.8613
vn -0.0000 1.0000 -0.0000
vn -0.0000 0.6766 0.7363
vn -0.3688 0.6769 0.6371
vn -0.5010 -0.0000 0.8654
vn -0.0000 -0.0000 1.0000
vn -0.0000 0.9239 0.3825
vn -0.1918 0.9238 0.3313
vn -0.0000 0.7406 -0.6719
vn 0.3370 0.7400 -0.5821
vn 0.1918 0.9238 -0.3313
vn -0.0000 0.9239 -0.3825
vn -0.0000 -0.0000 -1.0000
vn 0.5011 -0.0000 -0.8654
vn -0.0000 -0.7406 -0.6719
vn 0.3370 -0.7400 -0.5821
vn -0.0000 -0.9239 -0.3825
vn 0.1918 -0.9238 -0.3313
vn -0.0000 -0.6767 0.7363
vn -0.3688 -0.6769 0.6371
vn -0.1918 -0.9238 0.3313
vn -0.0000 -0.9239 0.3825
vn -0.6371 0.6769 0.3688
vn -0.8654 -0.0000 0.5010
vn -0.3313 0.9238 0.1918
vn 0.5821 0.7400 -0.3370
vn 0.3313 0.9238 -0.1918
vn 0.8654 -0.0000 -0.5011
vn 0.5821 -0.7400 -0.3370
vn 0.3313 -0.9238 -0.1918
vn -0.6371 -0.6769 0.3688
vn -0.3313 -0.9238 0.1918
vn -0.7363 0.6767 -0.0000
vn -1.0000 -0.0000 -0.0000
vn -0.3825 0.9239 -0.0000
vn 0.6719 0.7406 -0.0000
vn 0.3825 0.9239 -0.0000
vn 1.0000 -0.0000 -0.0000
vn 0.6719 -0.7406 -0.0000
vn 0.3825 -0.9239 -0.0000
vn -0.7363 -0.6767 -0.0000
vn -0.3825 -0.9239 -0.0000
vn -0.6371 0.6769 -0.3688
vn -0.8654 -0.0000 -0.5010
vn -0.3313 0.9238 -0.1918
vn 0.5821 0.7400 0.3370
vn 0.3313 0.9238 0.1918
vn 0.8654 -0.0000 0.5011
vn 0.5821 -0.7400 0.3370
vn 0.3313 -0.9238 0.1918
vn -0.6371 -0.6769 -0.3688
vn -0.3313 -0.9238 -0.1918
vn -0.3688 0.6769 -0.6371
vn -0.5010 -0.0000 -0.8654
vn -0.1918 0.9238 -0.3313
vn 0.3370 0.7400 0.5821
vn 0.1918 0.9238 0.3313
vn 0.5011 -0.0000 0.8654
vn 0.3370 -0.7400 0.5821
vn 0.1918 -0.9238 0.3313
vn -0.3688 -0.6769 -0.6371
vn -0.1918 -0.9238 -0.3313
vn -0.0000 0.6767 -0.7363
vn -0.0000 0.7406 0.6719
vn -0.0000 -0.7406 0.6719
vn -0.0000 -0.6767 -0.7363
vn 0.3688 0.6769 -0.6371
vn 0.5010 -0.0000 -0.8654
vn -0.3370 0.7400 0.5821
vn -0.5011 -0.0000 0.8654
vn -0.3370 -0.7400 0.5821
vn 0.3688 -0.6769 -0.6371
vn 0.6371 0.6769 -0.3688
vn 0.8654 -0.0000 -0.5010
vn -0.5821 0.7400 0.3370
vn -0.8654 -0.0000 0.5011
vn -0.5821 -0.7400 0.3370
vn 0.6371 -0.6769 -0.3688
vn 0.7363 0.6767 -0.0000
vn -0.6719 0.7406 -0.0000
vn -0.6719 -0.7406 -0.0000
vn 0.7363 -0.6767 -0.0000
vn 0.6371 0.6769 0.3688
vn 0.8654 -0.0000 0.5010
vn -0.5821 0.7400 -0.3370
vn -0.8654 -0.0000 -0.5011
vn -0.5821 -0.7400 -0.3370
vn 0.6371 -0.6769 0.3688
vn 0.3688 0.6769 0.6371
vn 0.5010 -0.0000 0.8654
vn -0.3370 0.7400 -0.5821
vn -0.5011 -0.0000 -0.8654
vn -0.3370 -0.7400 -0.5821
vn 0.3688 -0.6769 0.6371
vt 0.587057 0.217736
vt 0.574378 0.284691
vt 0.310095 0.241931
vt 0.325436 0.160913
vt 0.565296 0.352229
vt 0.299105 0.323654
vt 0.559837 0.420155
vt 0.292499 0.405847
vt 0.558015 0.488276
vt 0.290294 0.488276
vt 0.559837 0.556397
vt 0.292499 0.570705
vt 0.565296 0.624324
vt 0.299105 0.652898
vt 0.574378 0.691861
vt 0.310094 0.734621
vt 0.587057 0.758817
vt 0.325436 0.815640
vt 0.603295 0.824999
vt 0.345085 0.895723
vt 0.623048 0.890219
vt 0.368986 0.974641
vt 0.623048 0.086333
vt 0.603295 0.151553
vt 0.345085 0.080830
vt 0.368986 0.001911
vt 0.302821 0.777124
vt 0.037910 0.835329
vt 0.022018 0.752359
vt 0.289687 0.708555
vt 0.010633 0.668650
vt 0.280279 0.639376
vt 0.003789 0.584448
vt 0.274622 0.569790
vt 0.001505 0.500000
vt 0.272735 0.500000
vt 0.003789 0.415552
vt 0.274622 0.430210
vt 0.010633 0.331350
vt 0.280279 0.360624
vt 0.022018 0.247642
vt 0.289687 0.291445
vt 0.037910 0.164671
vt 0.302821 0.222876
vt 0.058263 0.082680
vt 0.319641 0.155117
vt 0.083017 0.001909
vt 0.340099 0.088366
vt 0.340099 0.911634
vt 0.083018 0.998091
vt 0.058263 0.917320
vt 0.319641 0.844883
vt 0.718301 0.001502
vt 0.788117 0.001505
vt 0.848577 0.036415
vt 0.883482 0.096878
vt 0.883479 0.166694
vt 0.848569 0.227154
vt 0.788105 0.262060
vt 0.718290 0.262057
vt 0.657829 0.227146
vt 0.622924 0.166683
vt 0.622927 0.096867
vt 0.657838 0.036407
vt 0.632599 0.394670
vt 0.632001 0.230538
vt 0.641854 0.229506
vt 0.641974 0.394709
vt 0.623327 0.394630
vt 0.622791 0.232871
vt 0.614010 0.394589
vt 0.613958 0.235094
vt 0.604512 0.394549
vt 0.605058 0.235988
vt 0.595012 0.394535
vt 0.596171 0.235073
vt 0.585686 0.394528
vt 0.587370 0.232833
vt 0.651351 0.394759
vt 0.651708 0.230477
vt 0.660920 0.232752
vt 0.660629 0.394803
vt 0.851619 0.729991
vt 0.851539 0.575859
vt 0.860665 0.575790
vt 0.861140 0.730958
vt 0.842710 0.727768
vt 0.842654 0.575894
vt 0.834163 0.725651
vt 0.833711 0.575915
vt 0.825552 0.724821
vt 0.824443 0.575962
vt 0.816816 0.725762
vt 0.815200 0.576054
vt 0.807938 0.728038
vt 0.806316 0.576142
vt 0.870810 0.729977
vt 0.869763 0.575773
vt 0.878577 0.575763
vt 0.880075 0.727634
vt 0.851754 0.416669
vt 0.861128 0.416709
vt 0.842481 0.416630
vt 0.833164 0.416589
vt 0.823666 0.416549
vt 0.814167 0.416535
vt 0.804840 0.416527
vt 0.870505 0.416759
vt 0.879784 0.416803
vt 0.851156 0.252538
vt 0.861009 0.251506
vt 0.841945 0.254871
vt 0.833112 0.257094
vt 0.824212 0.257988
vt 0.815326 0.257073
vt 0.806524 0.254833
vt 0.870862 0.252477
vt 0.880075 0.254752
vt 0.914021 0.002479
vt 0.914101 0.156611
vt 0.904975 0.156681
vt 0.904500 0.001513
vt 0.922930 0.004702
vt 0.922986 0.156576
vt 0.931477 0.006819
vt 0.931929 0.156555
vt 0.940087 0.007649
vt 0.941197 0.156508
vt 0.948824 0.006709
vt 0.950439 0.156416
vt 0.957702 0.004432
vt 0.959324 0.156328
vt 0.894830 0.002493
vt 0.895877 0.156697
vt 0.887063 0.156707
vt 0.885565 0.004837
vt 0.913886 0.315801
vt 0.904512 0.315761
vt 0.923159 0.315841
vt 0.932476 0.315881
vt 0.941974 0.315922
vt 0.951474 0.315935
vt 0.960800 0.315943
vt 0.895135 0.315712
vt 0.885856 0.315667
vt 0.914484 0.479933
vt 0.904632 0.480964
vt 0.923695 0.477600
vt 0.932528 0.475377
vt 0.941428 0.474483
vt 0.950314 0.475398
vt 0.959116 0.477638
vt 0.894778 0.479994
vt 0.885565 0.477719
vt 0.692328 0.262472
vt 0.692409 0.416605
vt 0.683282 0.416674
vt 0.682808 0.261506
vt 0.701237 0.264696
vt 0.701294 0.416570
vt 0.709785 0.266813
vt 0.710237 0.416549
vt 0.718395 0.267643
vt 0.719505 0.416502
vt 0.727132 0.266702
vt 0.728747 0.416410
vt 0.736010 0.264426
vt 0.737632 0.416322
vt 0.673138 0.262487
vt 0.674185 0.416691
vt 0.665371 0.416701
vt 0.663873 0.264830
vt 0.692194 0.575794
vt 0.682820 0.575754
vt 0.701467 0.575834
vt 0.710783 0.575875
vt 0.720281 0.575915
vt 0.729781 0.575929
vt 0.739108 0.575936
vt 0.673442 0.575705
vt 0.664164 0.575661
vt 0.692792 0.739926
vt 0.682939 0.740958
vt 0.702003 0.737593
vt 0.710836 0.735370
vt 0.719735 0.734476
vt 0.728622 0.735391
vt 0.737424 0.737631
vt 0.673086 0.739987
vt 0.663873 0.737712
vt 0.632465 0.707992
vt 0.632384 0.553860
vt 0.641511 0.553790
vt 0.641985 0.708958
vt 0.623556 0.705768
vt 0.623499 0.553894
vt 0.615008 0.703651
vt 0.614556 0.553916
vt 0.606398 0.702821
vt 0.605288 0.553962
vt 0.597661 0.703762
vt 0.596046 0.554054
vt 0.588783 0.706038
vt 0.587162 0.554142
vt 0.651655 0.707977
vt 0.650609 0.553773
vt 0.659422 0.553763
vt 0.660920 0.705634
s 1
f 1/1/1 3/2/2 4/3/2 2/4/1
f 3/2/2 5/5/3 6/6/3 4/3/2
f 5/5/3 7/7/4 8/8/4 6/6/3
f 7/7/4 9/9/5 10/10/5 8/8/4
f 9/9/5 11/11/6 12/12/6 10/10/5
f 11/11/6 13/13/7 14/14/7 12/12/6
f 13/13/7 15/15/8 16/16/8 14/14/7
f 15/15/8 17/17/9 18/18/9 16/16/8
f 17/17/9 19/19/10 20/20/10 18/18/9
f 19/19/10 21/21/11 22/22/11 20/20/10
f 21/23/11 23/24/12 24/25/12 22/26/11
f 23/24/12 1/1/1 2/4/1 24/25/12
f 25/27/13 26/28/13 28/29/14 27/30/14
f 27/30/14 28/29/14 30/31/15 29/32/15
f 29/32/15 30/31/15 32/33/16 31/34/16
f 31/34/16 32/33/16 34/35/17 33/36/17
f 33/36/17 34/35/17 36/37/18 35/38/18
f 35/38/18 36/37/18 38/39/19 37/40/19
f 37/40/19 38/39/19 40/41/20 39/42/20
f 39/42/20 40/41/20 42/43/21 41/44/21
f 41/44/21 42/43/21 44/45/22 43/46/22
f 43/46/22 44/45/22 46/47/23 45/48/23
f 45/49/23 46/50/23 48/51/24 47/52/24
f 47/52/24 48/51/24 26/28/13 25/27/13
f 25/53/25 47/54/25 45/55/25 43/56/25 41/57/25 39/58/25 37/59/25 35/60/25 33/61/25 31/62/25 29/63/25 27/64/25
f 49/65/26 57/66/27 64/67/28 56/68/29
f 50/69/30 58/70/31 57/66/27 49/65/26
f 51/71/32 59/72/33 58/70/34 50/69/35
f 52/73/36 60/74/37 59/72/33 51/71/32
f 53/75/38 61/76/39 60/74/37 52/73/36
f 54/77/40 62/78/41 61/76/39 53/75/38
f 55/79/42 63/80/43 62/81/44 54/82/45
f 56/68/29 64/67/28 63/80/43 55/79/42
f 57/83/27 65/84/46 72/85/47 64/86/28
f 58/87/31 66/88/48 65/84/46 57/83/27
f 59/89/33 67/90/49 66/88/50 58/87/34
f 60/91/37 68/92/51 67/90/49 59/89/33
f 61/93/39 69/94/52 68/92/51 60/91/37
f 62/95/41 70/96/53 69/94/52 61/93/39
f 63/97/43 71/98/54 70/99/55 62/100/44
f 64/86/28 72/85/47 71/98/54 63/97/43
f 65/84/46 73/101/56 80/102/57 72/85/47
f 66/88/48 74/103/58 73/101/56 65/84/46
f 67/90/49 75/104/59 74/103/60 66/88/50
f 68/92/51 76/105/61 75/104/59 67/90/49
f 69/94/52 77/106/62 76/105/61 68/92/51
f 70/96/53 78/107/63 77/106/62 69/94/52
f 71/98/54 79/108/64 78/109/65 70/99/55
f 72/85/47 80/102/57 79/108/64 71/98/54
f 73/101/56 81/110/66 88/111/67 80/102/57
f 74/103/58 82/112/68 81/110/66 73/101/56
f 75/104/59 83/113/69 82/112/70 74/103/60
f 76/105/61 84/114/71 83/113/69 75/104/59
f 77/106/62 85/115/72 84/114/71 76/105/61
f 78/107/63 86/116/73 85/115/72 77/106/62
f 79/108/64 87/117/74 86/118/75 78/109/65
f 80/102/57 88/111/67 87/117/74 79/108/64
f 81/119/66 89/120/76 96/121/77 88/122/67
f 82/123/68 90/124/78 89/120/76 81/119/66
f 83/125/69 91/126/79 90/124/80 82/123/70
f 84/127/71 92/128/81 91/126/79 83/125/69
f 85/129/72 93/130/82 92/128/81 84/127/71
f 86/131/73 94/132/83 93/130/82 85/129/72
f 87/133/74 95/134/84 94/135/85 86/136/75
f 88/122/67 96/121/77 95/134/84 87/133/74
f 89/120/76 97/137/86 104/138/36 96/121/77
f 90/124/78 98/139/35 97/137/86 89/120/76
f 91/126/79 99/140/87 98/139/30 90/124/80
f 92/128/81 100/141/29 99/140/87 91/126/79
f 93/130/82 101/142/88 100/141/29 92/128/81
f 94/132/83 102/143/45 101/142/88 93/130/82
f 95/134/84 103/144/89 102/145/40 94/135/85
f 96/121/77 104/138/36 103/144/89 95/134/84
f 97/137/86 105/146/90 112/147/91 104/138/36
f 98/139/35 106/148/34 105/146/90 97/137/86
f 99/140/87 107/149/92 106/148/31 98/139/30
f 100/141/29 108/150/93 107/149/92 99/140/87
f 101/142/88 109/151/94 108/150/93 100/141/29
f 102/143/45 110/152/44 109/151/94 101/142/88
f 103/144/89 111/153/95 110/154/41 102/145/40
f 104/138/36 112/147/91 111/153/95 103/144/89
f 105/155/90 113/156/96 120/157/97 112/158/91
f 106/159/34 114/160/50 113/156/96 105/155/90
f 107/161/92 115/162/98 114/160/48 106/159/31
f 108/163/93 116/164/99 115/162/98 107/161/92
f 109/165/94 117/166/100 116/164/99 108/163/93
f 110/167/44 118/168/55 117/166/100 109/165/94
f 111/169/95 119/170/101 118/171/53 110/172/41
f 112/158/91 120/157/97 119/170/101 111/169/95
f 113/156/96 121/173/102 128/174/61 120/157/97
f 114/160/50 122/175/60 121/173/102 113/156/96
f 115/162/98 123/176/103 122/175/58 114/160/48
f 116/164/99 124/177/57 123/176/103 115/162/98
f 117/166/100 125/178/104 124/177/57 116/164/99
f 118/168/55 126/179/65 125/178/104 117/166/100
f 119/170/101 127/180/105 126/181/63 118/171/53
f 120/157/97 128/174/61 127/180/105 119/170/101
f 121/173/102 129/182/106 136/183/107 128/174/61
f 122/175/60 130/184/70 129/182/106 121/173/102
f 123/176/103 131/185/108 130/184/68 122/175/58
f 124/177/57 132/186/109 131/185/108 123/176/103
f 125/178/104 133/187/110 132/186/109 124/177/57
f 126/179/65 134/188/75 133/187/110 125/178/104
f 127/180/105 135/189/111 134/190/73 126/181/63
f 128/174/61 136/183/107 135/189/111 127/180/105
f 129/191/106 137/192/112 144/193/113 136/194/107
f 130/195/70 138/196/80 137/192/112 129/191/106
f 131/197/108 139/198/114 138/196/78 130/195/68
f 132/199/109 140/200/115 139/198/114 131/197/108
f 133/201/110 141/202/116 140/200/115 132/199/109
f 134/203/75 142/204/85 141/202/116 133/201/110
f 135/205/111 143/206/117 142/207/83 134/208/73
f 136/194/107 144/193/113 143/206/117 135/205/111
f 137/192/112 49/65/26 56/68/29 144/193/113
f 138/196/80 50/69/30 49/65/26 137/192/112
f 139/198/114 51/71/32 50/69/35 138/196/78
f 140/200/115 52/73/36 51/71/32 139/198/114
f 141/202/116 53/75/38 52/73/36 140/200/115
f 142/204/85 54/77/40 53/75/38 141/202/116
f 143/206/117 55/79/42 54/82/45 142/207/83
f 144/193/113 56/68/29 55/79/42 143/206/117
